<svg xmlns="http://www.w3.org/2000/svg" xmlns:xlink="http://www.w3.org/1999/xlink" version="1.1" x="0px" y="0px" viewBox="0 0 72 90" style="enable-background:new 0 0 72 72;" xml:space="preserve"><path d="M60.05,21.97c0,5.54-4.53,9.97-10.07,9.97c-5.54,0-9.97-4.43-9.97-9.97c0-5.54,4.43-10.07,9.97-10.07  C55.52,11.91,60.05,16.43,60.05,21.97L60.05,21.97z M50.35,15.14l1.75,3.42c0.09,0.18,0.28,0.37,0.55,0.46l3.69,0.55  c0.46,0.09,0.18,0.46,0.18,0.46l-2.77,2.68c0,0-0.28,0.28-0.18,0.74l0.55,3.6c0.09,0.37-0.09,0.46-0.37,0.37l-3.42-1.75  c-0.18-0.09-0.46-0.09-0.74,0l-3.42,1.75c-0.28,0.09-0.37,0-0.37-0.37l0.55-3.6c0.09-0.46-0.18-0.74-0.18-0.74l-2.68-2.68  c0,0-0.37-0.37,0.09-0.46l3.69-0.55c0.28-0.09,0.46-0.28,0.65-0.46l1.66-3.42C49.8,14.86,50.26,14.86,50.35,15.14L50.35,15.14z   M48.23,14.4l-1.57,3.05L43.43,18c-1.66,0.18-2.22,2.03-1.11,3.14l2.4,2.4l-0.46,3.32c-0.28,1.57,1.29,2.77,2.68,1.94l3.05-1.48  l3.05,1.48c1.48,0.83,3.05-0.37,2.77-1.94l-0.55-3.32l2.4-2.4c1.2-1.11,0.55-2.96-1.02-3.14l-3.32-0.55l-1.48-3.05  C51.09,12.92,48.87,12.92,48.23,14.4L48.23,14.4z M52.38,48.11c2.77,0,5.36,1.11,7.2,2.86c1.39-2.12,2.49-4.43,3.23-6.93  c1.39-4.34,1.66-9.05,0.83-13.48c-1.57,0.18-1.85,1.75-0.18,3.88c0.18,0.37,0.18,0.83-0.09,1.11c-1.29,1.29-2.86,2.4-4.53,3.23  c-0.37,0.28-0.83,0.18-1.11-0.18c-2.03-2.86-4.25-2.59-4.25,1.39c0,0.37-0.28,0.74-0.65,0.83c-1.85,0.28-3.79,0.28-5.63,0  c-0.46-0.09-0.74-0.46-0.74-0.83c0-3.97-2.12-4.25-4.25-1.39c-0.28,0.37-0.74,0.46-1.11,0.18c-1.66-0.83-3.14-1.94-4.43-3.23  c-0.37-0.28-0.28-0.74-0.09-1.11c2.22-3.05,0.92-4.71-2.59-3.6c0.74,1.85,1.2,3.97,1.2,6.1c0,4.8-2.22,9.42-5.91,12.47v2.59  c0,0.74-0.28,1.39-0.74,1.85c0.46,0.46,0.74,1.2,0.74,1.94c0,1.2-0.83,2.31-2.03,2.68v2.68c1.02,0.28,1.85,1.2,2.03,2.31  c0.92,0.18,1.85,0.37,2.86,0.46c1.11,0.18,2.31,0.18,3.51,0.18c1.29,0,2.68-0.09,3.97-0.28c1.11-0.09,2.22-0.37,3.23-0.65  c-0.65-1.39-1.02-2.96-1.02-4.53C41.86,52.82,46.57,48.11,52.38,48.11L52.38,48.11z M60.79,52.27c1.29,1.75,2.12,3.97,2.12,6.37  c0,5.82-4.71,10.53-10.53,10.53c-3.6,0-6.74-1.85-8.59-4.53c-1.29,0.37-2.59,0.65-3.97,0.83c-1.39,0.18-2.77,0.28-4.16,0.28  c-1.29,0-2.49-0.09-3.69-0.18c-1.02-0.18-2.03-0.37-2.96-0.55c-0.46,1.02-1.48,1.66-2.59,1.66h-9.51c-0.37,1.29-1.57,2.31-3.05,2.31  c-1.75,0-3.14-1.39-3.14-3.14c0-1.48,1.02-2.68,2.31-3.05v-0.18h-1.2c-1.48,0-2.77-1.29-2.77-2.86c0-1.2,0.83-2.31,1.94-2.68v-2.59  c-1.11-0.28-1.94-1.29-1.94-2.49V49.4c-3.79-3.05-5.91-7.66-5.91-12.47c0-3.97,1.39-7.67,3.79-10.44l0.09-0.09  c1.94-6.1,5.82-11.36,10.9-15.15c6.37-4.53,14.13-6.46,21.89-5.45c0.37-0.28,0.83-0.55,1.29-0.74c0.37-0.28,0.83-0.18,1.11,0.18  c2.12,2.86,4.25,2.68,4.25-1.39c0-0.37,0.28-0.74,0.74-0.83c1.85-0.28,3.79-0.28,5.63,0c0.37,0.09,0.65,0.46,0.65,0.83  c0,4.06,2.22,4.25,4.25,1.39c0.28-0.37,0.74-0.46,1.11-0.18c1.66,0.83,3.23,1.94,4.53,3.23c0.28,0.28,0.28,0.74,0.09,1.11  c-2.22,3.05-1.02,4.8,2.59,3.6c0.18,0,0.65-0.09,1.02,0.46c0.83,1.66,1.48,3.42,1.75,5.26c0.09,0.46-0.18,0.83-0.55,0.92  c-3.6,1.2-3.6,3.32,0,4.53c0.37,0.09,0.65,0.46,0.55,0.92c-0.28,1.85-0.92,3.69-1.75,5.36c-0.37,0.55-0.83,0.46-1.02,0.37  c-0.28-0.09-0.46-0.18-0.74-0.18c0.74,4.62,0.46,9.42-0.92,13.94C63.56,47.28,62.26,49.86,60.79,52.27L60.79,52.27z M51.09,58.54  l4.06-4.25c0.92-1.02,2.49-1.02,3.42-0.09c1.02,0.92,1.02,2.49,0.09,3.42l-5.73,6.1c-0.92,1.02-2.4,1.02-3.42,0.09l-3.79-3.51  c-0.46-0.46-0.65-1.11-0.65-1.66c-0.09-1.39,1.02-2.49,2.31-2.49c0.65-0.09,1.29,0.18,1.75,0.55L51.09,58.54z M56.26,55.4l-4.53,4.8  c-0.37,0.37-0.83,0.37-1.11,0.09l-2.49-2.4c-0.92-0.83-2.12,0.55-1.2,1.29l3.69,3.51c0.28,0.28,0.92,0.28,1.2-0.09l5.73-6  c0.37-0.37,0.28-0.92,0-1.29C57.19,55.04,56.63,55.04,56.26,55.4L56.26,55.4z M52.38,49.77c-4.89,0-8.87,3.97-8.87,8.87  s3.97,8.87,8.87,8.87c4.89,0,8.87-3.97,8.87-8.87S57.28,49.77,52.38,49.77L52.38,49.77z M19.14,20.87c4.99,0,9.42,2.31,12.37,5.82  c-0.09-0.46-0.18-1.02-0.28-1.57c-0.09-0.46,0.09-0.83,0.55-0.92c3.51-1.2,3.51-3.32,0-4.53c-0.46-0.09-0.65-0.46-0.55-0.92  c0.28-1.85,0.83-3.6,1.66-5.26c0.46-0.55,0.83-0.46,1.02-0.46c3.6,1.2,4.89-0.55,2.68-3.6c-0.18-0.37-0.28-0.83,0.09-1.11  c0.37-0.37,0.74-0.74,1.11-1.02c-6.65-0.55-13.39,1.29-18.84,5.36c-4.06,2.86-7.2,6.83-9.33,11.36  C12.3,22.07,15.63,20.87,19.14,20.87L19.14,20.87z M61.71,21.97c0-6.46-5.26-11.73-11.73-11.73c-6.46,0-11.64,5.26-11.64,11.73  c0,6.37,5.17,11.64,11.64,11.64C56.45,33.61,61.71,28.35,61.71,21.97L61.71,21.97z M67.07,18.37c-0.28-1.2-0.65-2.4-1.2-3.6  c-4.43,1.11-6.56-1.85-4.16-5.73c-0.92-0.83-1.94-1.66-3.05-2.22c-2.77,3.23-6.37,2.68-6.74-2.22c-1.29-0.18-2.59-0.18-3.79,0  c-0.37,4.89-4.06,5.45-6.83,2.22c-1.02,0.55-2.12,1.39-3.05,2.22c2.4,3.88,0.28,6.83-4.16,5.73c-0.55,1.2-0.92,2.4-1.2,3.6  c4.16,1.66,4.16,5.45,0,7.11c0.28,1.29,0.65,2.49,1.2,3.6c4.43-1.11,6.56,1.85,4.16,5.73c0.92,0.92,2.03,1.66,3.05,2.31  c2.77-3.32,6.46-2.68,6.83,2.12c1.2,0.18,2.49,0.18,3.79,0c0.37-4.8,3.97-5.45,6.74-2.12c1.11-0.65,2.12-1.39,3.05-2.31  c-2.4-3.88-0.28-6.83,4.16-5.73c0.55-1.11,0.92-2.31,1.2-3.6C62.91,23.82,62.91,20.04,67.07,18.37L67.07,18.37z M19.14,33.06  c2.12,0,3.79,1.66,3.79,3.79c0,2.03-1.66,3.79-3.79,3.79c-2.03,0-3.69-1.75-3.69-3.79C15.44,34.72,17.11,33.06,19.14,33.06  L19.14,33.06z M19.14,34.72c-1.11,0-2.12,0.92-2.12,2.12c0,1.2,1.02,2.12,2.12,2.12c1.2,0,2.12-0.92,2.12-2.12  C21.26,35.64,20.34,34.72,19.14,34.72L19.14,34.72z M25.51,29.27c0.83-0.74,1.94,0.46,1.2,1.2l-2.4,2.31  c-0.74,0.83-1.85-0.37-1.11-1.11L25.51,29.27z M29.02,36.01c1.11,0,1.11,1.66,0,1.66h-3.32c-1.11,0-1.11-1.66,0-1.66H29.02z   M26.71,43.21c0.74,0.74-0.37,1.94-1.2,1.2l-2.31-2.4c-0.74-0.74,0.37-1.85,1.11-1.11L26.71,43.21z M12.77,44.42  c-0.74,0.74-1.94-0.46-1.11-1.2l2.31-2.31c0.74-0.74,1.94,0.37,1.2,1.11L12.77,44.42z M9.35,37.67c-1.11,0-1.11-1.66,0-1.66h3.32  c1.02,0,1.02,1.66,0,1.66H9.35z M11.66,30.47c-0.83-0.74,0.37-1.94,1.11-1.2l2.4,2.4c0.74,0.74-0.46,1.94-1.2,1.11L11.66,30.47z   M18.4,26.96c0-1.02,1.57-1.02,1.57,0v3.42c0,1.02-1.57,1.02-1.57,0V26.96z M18.4,43.4c0-1.02,1.57-1.02,1.57,0v9.51h6.74  c0.55,0,0.92-0.37,0.92-0.92v-2.96c0-0.28,0.09-0.55,0.37-0.65c3.51-2.77,5.54-6.93,5.54-11.45c0-7.94-6.37-14.41-14.41-14.41  c-7.94,0-14.41,6.46-14.41,14.41c0,4.43,2.03,8.68,5.63,11.36c0.18,0.18,0.37,0.46,0.37,0.74v2.96c0,0.55,0.37,0.92,0.83,0.92h6.83  V43.4z M14.7,62.79c1.11,0.28,1.94,1.2,2.22,2.22h9.51c0.65,0,1.2-0.55,1.2-1.2s-0.55-1.2-1.2-1.2H14.7V62.79z M25.69,58.54H11.84  c-0.65,0-1.2,0.55-1.2,1.2c0,0.74,0.55,1.29,1.2,1.29h13.85V58.54z M12.67,56.97h13.76c0.65,0,1.2-0.55,1.2-1.2  c0-0.74-0.55-1.2-1.2-1.2l0,0H12.67V56.97z M13.87,64.36c-0.83,0-1.48,0.65-1.48,1.48c0,0.83,0.65,1.48,1.48,1.48  c0.83,0,1.57-0.65,1.57-1.48C15.44,65.01,14.7,64.36,13.87,64.36L13.87,64.36z"/><text x="0" y="87" fill="#000000" font-size="5px" font-weight="bold" font-family="'Helvetica Neue', Helvetica, Arial-Unicode, Arial, Sans-serif">Created by Shape'Br</text><text x="0" y="92" fill="#000000" font-size="5px" font-weight="bold" font-family="'Helvetica Neue', Helvetica, Arial-Unicode, Arial, Sans-serif">from the Noun Project</text></svg>