<svg xmlns="http://www.w3.org/2000/svg" xmlns:xlink="http://www.w3.org/1999/xlink" xml:space="preserve" version="1.1" style="shape-rendering:geometricPrecision;text-rendering:geometricPrecision;image-rendering:optimizeQuality;" viewBox="0 0 14350 16598.75" x="0px" y="0px" fill-rule="evenodd" clip-rule="evenodd"><defs><style type="text/css">
   
    .fil0 {fill:black;fill-rule:nonzero}
   
  </style></defs><g><path class="fil0" d="M5554 811c1077,-1217 2440,-939 3576,7 -1135,291 -2025,-898 -3146,365l382 331 -1114 79 -80 -1114 382 332zm4262 1973c0,578 108,900 451,1457 268,344 525,500 776,479 251,21 508,-135 776,-479 343,-557 451,-879 451,-1457 0,-1675 -2454,-1674 -2454,0zm4164 4619c0,0 0,-701 -83,-1348 -83,-648 -1334,-908 -1801,-1090 -150,-58 -230,-151 -274,-231 -215,197 -476,338 -779,323 -300,15 -558,-123 -772,-317 -41,77 -122,163 -281,225 -467,182 -1718,442 -1801,1090 -83,647 -83,1348 -83,1348l812 0 0 -183c0,-70 57,-127 126,-127l0 0c70,0 127,57 127,127l0 183 3744 0 0 -183c0,-70 57,-127 126,-127l0 0c70,0 127,57 127,127l0 183 812 0zm-9946 5086l678 790 677 -790 -455 -3860 -419 0 -481 3860zm5389 -488c0,0 0,-1570 -133,-2609 -134,-1038 -2140,-1456 -2888,-1747 -507,-197 -519,-634 -519,-634 -700,860 -1636,866 -2347,-5 0,0 58,417 -514,639 -749,291 -2755,709 -2889,1747 -133,1039 -133,2609 -133,2609l3662 0 523 -3434c24,-157 165,-210 324,-210l451 0c159,0 283,55 303,213l443 3431 3717 0zm-6679 -7854c0,927 173,1443 723,2337 430,551 841,802 1245,768 403,34 814,-217 1244,-768 550,-894 724,-1410 724,-2337 0,-2687 -3936,-2686 -3936,0zm11110 5481c-324,1593 -1643,2034 -3100,1783 838,-819 2203,-235 2542,-1889l-497 -96 926 -626 625 925 -496 -97z"/></g><text x="0" y="13294" fill="#000000" font-size="5px" font-weight="bold" font-family="'Helvetica Neue', Helvetica, Arial-Unicode, Arial, Sans-serif">Created by popcornarts</text><text x="0" y="13299" fill="#000000" font-size="5px" font-weight="bold" font-family="'Helvetica Neue', Helvetica, Arial-Unicode, Arial, Sans-serif">from the Noun Project</text></svg>